# This file uses centimeters as units for non-parametric coordinates.

v 0.864149 0.000000 -0.498831
v 0.000149 0.000000 -0.997662
v -0.863852 0.000000 -0.498831
v -0.863852 0.000000 0.498831
v 0.000148 0.000000 0.997662
v 0.864149 0.000000 0.498831
v 0.000148 0.389814 0.000000
v 0.000148 0.390301 0.997408
v -0.863632 0.390301 0.498704
v -0.863632 0.390301 -0.498704
v 0.000149 0.390301 -0.997408
v 0.863929 0.390301 -0.498704
v 0.863929 0.390301 0.498704
vt 0.612271 0.891573
vt 0.509590 0.951345
vt 0.406539 0.892306
vt 0.406107 0.773535
vt 0.508751 0.713781
vt 0.611837 0.772812
vt 0.360684 0.773583
vt 0.486014 0.674477
vt 0.634535 0.733460
vt 0.657692 0.891545
vt 0.532327 0.990700
vt 0.383850 0.931654
vt 0.509185 0.832560
vt 0.612257 0.773542
vt 0.611852 0.892302
vt 0.508748 0.951343
vt 0.406119 0.891578
vt 0.406530 0.772804
vt 0.509595 0.713779
vt 0.360703 0.891559
vt 0.486007 0.990654
vt 0.634565 0.931657
vt 0.657664 0.773575
vt 0.532337 0.674446
vt 0.383865 0.733443
vn 1.000000 0.000565 0.000000
vn 1.000000 0.000565 0.000000
vn 1.000000 0.000565 0.000000
vn 1.000000 0.000565 0.000000
vn 0.500000 0.000565 -0.866025
vn 0.500000 0.000565 -0.866025
vn 0.500000 0.000565 -0.866025
vn 0.500000 0.000565 -0.866025
vn -0.500000 0.000565 -0.866025
vn -0.500000 0.000565 -0.866025
vn -0.500000 0.000565 -0.866025
vn -0.500000 0.000565 -0.866025
vn -1.000000 0.000565 -0.000000
vn -1.000000 0.000565 -0.000000
vn -1.000000 0.000565 -0.000000
vn -1.000000 0.000565 -0.000000
vn -0.500000 0.000565 0.866025
vn -0.500000 0.000565 0.866025
vn -0.500000 0.000565 0.866025
vn -0.500000 0.000565 0.866025
vn 0.500000 0.000565 0.866025
vn 0.500000 0.000565 0.866025
vn 0.500000 0.000565 0.866025
vn 0.500000 0.000565 0.866025
vn -0.000282 1.000000 -0.000488
vn -0.000282 1.000000 -0.000488
vn -0.000282 1.000000 -0.000488
vn 0.000282 1.000000 -0.000488
vn 0.000282 1.000000 -0.000488
vn 0.000282 1.000000 -0.000488
vn 0.000564 1.000000 0.000000
vn 0.000564 1.000000 0.000000
vn 0.000564 1.000000 0.000000
vn 0.000282 1.000000 0.000488
vn 0.000282 1.000000 0.000488
vn 0.000282 1.000000 0.000488
vn -0.000282 1.000000 0.000488
vn -0.000282 1.000000 0.000488
vn -0.000282 1.000000 0.000488
vn -0.000564 1.000000 0.000000
vn -0.000564 1.000000 0.000000
vn -0.000564 1.000000 0.000000
s off
f 6/23/1 1/10/2 12/1/3 13/14/4
f 1/22/5 2/11/6 11/2/7 12/15/8
f 2/21/9 3/12/10 10/3/11 11/16/12
f 3/20/13 4/7/14 9/4/15 10/17/16
f 4/25/17 5/8/18 8/5/19 9/18/20
f 5/24/21 6/9/22 13/6/23 8/19/24
f 7/13/25 8/19/26 13/6/27
f 7/13/28 9/18/29 8/5/30
f 7/13/31 10/17/32 9/4/33
f 7/13/34 11/16/35 10/3/36
f 7/13/37 12/15/38 11/2/39
f 7/13/40 13/14/41 12/1/42
