# This file uses centimeters as units for non-parametric coordinates.

v 0.864001 0.000000 -0.498831
v 0.000000 0.000000 -0.997662
v -0.864001 0.000000 -0.498831
v -0.864001 0.000000 0.498831
v -0.000000 0.000000 0.997662
v 0.864001 0.000000 0.498831
v 0.000000 0.389814 0.000000
v -0.000000 0.390301 0.997408
v -0.863780 0.390301 0.498704
v -0.863780 0.390301 -0.498704
v 0.000000 0.390301 -0.997408
v 0.863781 0.390301 -0.498704
v 0.863780 0.390301 0.498704
vt 0.287200 0.559037
vt 0.184518 0.618809
vt 0.081468 0.559771
vt 0.081036 0.440999
vt 0.183680 0.381245
vt 0.286765 0.440276
vt 0.035612 0.441047
vt 0.160942 0.341941
vt 0.309464 0.400924
vt 0.332621 0.559009
vt 0.207255 0.658164
vt 0.058779 0.599118
vt 0.184114 0.500024
vt 0.287186 0.441006
vt 0.286780 0.559766
vt 0.183676 0.618807
vt 0.081047 0.559042
vt 0.081458 0.440268
vt 0.184523 0.381243
vt 0.035631 0.559023
vt 0.160936 0.658118
vt 0.309494 0.599121
vt 0.332592 0.441039
vt 0.207266 0.341910
vt 0.058794 0.400907
vn 1.000000 0.000565 0.000000
vn 1.000000 0.000565 0.000000
vn 1.000000 0.000565 0.000000
vn 1.000000 0.000565 0.000000
vn 0.500000 0.000565 -0.866025
vn 0.500000 0.000565 -0.866025
vn 0.500000 0.000565 -0.866025
vn 0.500000 0.000565 -0.866025
vn -0.500000 0.000565 -0.866025
vn -0.500000 0.000565 -0.866025
vn -0.500000 0.000565 -0.866025
vn -0.500000 0.000565 -0.866025
vn -1.000000 0.000565 0.000000
vn -1.000000 0.000565 0.000000
vn -1.000000 0.000565 0.000000
vn -1.000000 0.000565 0.000000
vn -0.500000 0.000565 0.866025
vn -0.500000 0.000565 0.866025
vn -0.500000 0.000565 0.866025
vn -0.500000 0.000565 0.866025
vn 0.500000 0.000565 0.866025
vn 0.500000 0.000565 0.866025
vn 0.500000 0.000565 0.866025
vn 0.500000 0.000565 0.866025
vn -0.000282 1.000000 0.000488
vn -0.000282 1.000000 0.000488
vn -0.000282 1.000000 0.000488
vn -0.000564 1.000000 0.000000
vn -0.000564 1.000000 0.000000
vn -0.000564 1.000000 0.000000
vn -0.000282 1.000000 -0.000488
vn -0.000282 1.000000 -0.000488
vn -0.000282 1.000000 -0.000488
vn 0.000282 1.000000 -0.000488
vn 0.000282 1.000000 -0.000488
vn 0.000282 1.000000 -0.000488
vn 0.000564 1.000000 0.000000
vn 0.000564 1.000000 0.000000
vn 0.000564 1.000000 0.000000
vn 0.000282 1.000000 0.000488
vn 0.000282 1.000000 0.000488
vn 0.000282 1.000000 0.000488
s off
f 6/23/1 1/10/2 12/1/3 13/14/4
f 1/22/5 2/11/6 11/2/7 12/15/8
f 2/21/9 3/12/10 10/3/11 11/16/12
f 3/20/13 4/7/14 9/4/15 10/17/16
f 4/25/17 5/8/18 8/5/19 9/18/20
f 5/24/21 6/9/22 13/6/23 8/19/24
f 7/13/25 12/15/26 11/2/27
f 7/13/28 13/14/29 12/1/30
f 7/13/31 8/19/32 13/6/33
f 7/13/34 9/18/35 8/5/36
f 7/13/37 10/17/38 9/4/39
f 7/13/40 11/16/41 10/3/42
