# This file uses centimeters as units for non-parametric coordinates.

v 0.864001 0.000000 -0.498831
v 0.000000 0.000000 -0.997662
v -0.864001 0.000000 -0.498831
v -0.864001 0.000000 0.498831
v -0.000000 0.000000 0.997662
v 0.864001 0.000000 0.498831
v 0.000000 0.389814 0.000000
v -0.000000 0.390319 0.997408
v -0.863780 0.390319 0.498704
v -0.863780 0.390319 -0.498704
v 0.000000 0.390319 -0.997408
v 0.863780 0.390319 -0.498704
v 0.863780 0.390319 0.498704
vt 0.612497 0.559436
vt 0.509815 0.619209
vt 0.406764 0.560170
vt 0.406333 0.441398
vt 0.508977 0.381644
vt 0.612063 0.440675
vt 0.360909 0.441446
vt 0.486239 0.342340
vt 0.634761 0.401323
vt 0.657918 0.559408
vt 0.532552 0.658563
vt 0.384076 0.599517
vt 0.509410 0.500423
vt 0.612483 0.441405
vt 0.612077 0.560165
vt 0.508973 0.619206
vt 0.406344 0.559441
vt 0.406755 0.440667
vt 0.509820 0.381642
vt 0.360928 0.559422
vt 0.486232 0.658517
vt 0.634791 0.599520
vt 0.657889 0.441438
vt 0.532563 0.342309
vt 0.384091 0.401306
vn 1.000000 0.000565 0.000000
vn 1.000000 0.000565 0.000000
vn 1.000000 0.000565 0.000000
vn 1.000000 0.000565 0.000000
vn 0.500000 0.000565 -0.866025
vn 0.500000 0.000565 -0.866025
vn 0.500000 0.000565 -0.866025
vn 0.500000 0.000565 -0.866025
vn -0.500000 0.000565 -0.866025
vn -0.500000 0.000565 -0.866025
vn -0.500000 0.000565 -0.866025
vn -0.500000 0.000565 -0.866025
vn -1.000000 0.000565 -0.000000
vn -1.000000 0.000565 -0.000000
vn -1.000000 0.000565 -0.000000
vn -1.000000 0.000565 -0.000000
vn -0.500000 0.000565 0.866025
vn -0.500000 0.000565 0.866025
vn -0.500000 0.000565 0.866025
vn -0.500000 0.000565 0.866025
vn 0.500000 0.000565 0.866025
vn 0.500000 0.000565 0.866025
vn 0.500000 0.000565 0.866025
vn 0.500000 0.000565 0.866025
vn -0.000293 1.000000 -0.000507
vn -0.000293 1.000000 -0.000507
vn -0.000293 1.000000 -0.000507
vn 0.000293 1.000000 -0.000507
vn 0.000293 1.000000 -0.000507
vn 0.000293 1.000000 -0.000507
vn 0.000585 1.000000 0.000000
vn 0.000585 1.000000 0.000000
vn 0.000585 1.000000 0.000000
vn 0.000293 1.000000 0.000507
vn 0.000293 1.000000 0.000507
vn 0.000293 1.000000 0.000507
vn -0.000293 1.000000 0.000507
vn -0.000293 1.000000 0.000507
vn -0.000293 1.000000 0.000507
vn -0.000585 1.000000 0.000000
vn -0.000585 1.000000 0.000000
vn -0.000585 1.000000 0.000000
s off
f 6/23/1 1/10/2 12/1/3 13/14/4
f 1/22/5 2/11/6 11/2/7 12/15/8
f 2/21/9 3/12/10 10/3/11 11/16/12
f 3/20/13 4/7/14 9/4/15 10/17/16
f 4/25/17 5/8/18 8/5/19 9/18/20
f 5/24/21 6/9/22 13/6/23 8/19/24
f 7/13/25 8/19/26 13/6/27
f 7/13/28 9/18/29 8/5/30
f 7/13/31 10/17/32 9/4/33
f 7/13/34 11/16/35 10/3/36
f 7/13/37 12/15/38 11/2/39
f 7/13/40 13/14/41 12/1/42
