# This file uses centimeters as units for non-parametric coordinates.

v 0.864001 0.000000 -0.498831
v 0.000000 0.000000 -0.997662
v -0.864001 0.000000 -0.498831
v -0.864001 0.000000 0.498831
v -0.000000 0.000000 0.997662
v 0.864001 0.000000 0.498831
v 0.000000 0.389814 0.000000
v 0.000000 0.390301 0.997408
v -0.863780 0.390301 0.498704
v -0.863780 0.390301 -0.498704
v 0.000000 0.390301 -0.997408
v 0.863780 0.390301 -0.498704
v 0.863780 0.390301 0.498704
vt 0.934059 0.223915
vt 0.831377 0.283687
vt 0.728327 0.224649
vt 0.727895 0.105877
vt 0.830539 0.046123
vt 0.933625 0.105154
vt 0.682471 0.105925
vt 0.807801 0.006819
vt 0.956323 0.065802
vt 0.979480 0.223887
vt 0.854114 0.323042
vt 0.705638 0.263996
vt 0.830973 0.164902
vt 0.934045 0.105884
vt 0.933639 0.224644
vt 0.830535 0.283685
vt 0.727906 0.223920
vt 0.728317 0.105146
vt 0.831382 0.046121
vt 0.682490 0.223901
vt 0.807795 0.322996
vt 0.956353 0.263999
vt 0.979451 0.105917
vt 0.854125 0.006788
vt 0.705653 0.065785
vn 1.000000 0.000565 0.000000
vn 1.000000 0.000565 0.000000
vn 1.000000 0.000565 0.000000
vn 1.000000 0.000565 0.000000
vn 0.500000 0.000565 -0.866025
vn 0.500000 0.000565 -0.866025
vn 0.500000 0.000565 -0.866025
vn 0.500000 0.000565 -0.866025
vn -0.500000 0.000565 -0.866025
vn -0.500000 0.000565 -0.866025
vn -0.500000 0.000565 -0.866025
vn -0.500000 0.000565 -0.866025
vn -1.000000 0.000565 -0.000000
vn -1.000000 0.000565 -0.000000
vn -1.000000 0.000565 -0.000000
vn -1.000000 0.000565 -0.000000
vn -0.500000 0.000565 0.866025
vn -0.500000 0.000565 0.866025
vn -0.500000 0.000565 0.866025
vn -0.500000 0.000565 0.866025
vn 0.500000 0.000564 0.866025
vn 0.500000 0.000564 0.866025
vn 0.500000 0.000564 0.866025
vn 0.500000 0.000564 0.866025
vn -0.000282 1.000000 -0.000488
vn -0.000282 1.000000 -0.000488
vn -0.000282 1.000000 -0.000488
vn 0.000282 1.000000 -0.000488
vn 0.000282 1.000000 -0.000488
vn 0.000282 1.000000 -0.000488
vn 0.000564 1.000000 0.000000
vn 0.000564 1.000000 0.000000
vn 0.000564 1.000000 0.000000
vn 0.000282 1.000000 0.000488
vn 0.000282 1.000000 0.000488
vn 0.000282 1.000000 0.000488
vn -0.000282 1.000000 0.000488
vn -0.000282 1.000000 0.000488
vn -0.000282 1.000000 0.000488
vn -0.000564 1.000000 0.000000
vn -0.000564 1.000000 0.000000
vn -0.000564 1.000000 0.000000
s off
f 6/23/1 1/10/2 12/1/3 13/14/4
f 1/22/5 2/11/6 11/2/7 12/15/8
f 2/21/9 3/12/10 10/3/11 11/16/12
f 3/20/13 4/7/14 9/4/15 10/17/16
f 4/25/17 5/8/18 8/5/19 9/18/20
f 5/24/21 6/9/22 13/6/23 8/19/24
f 8/19/25 13/6/26 7/13/27
f 9/18/28 8/5/29 7/13/30
f 10/17/31 9/4/32 7/13/33
f 11/16/34 10/3/35 7/13/36
f 12/15/37 11/2/38 7/13/39
f 13/14/40 12/1/41 7/13/42
