# This file uses centimeters as units for non-parametric coordinates.

v 0.863853 0.000000 -0.498831
v -0.000148 0.000000 -0.997662
v -0.864149 0.000000 -0.498831
v -0.864149 0.000000 0.498831
v -0.000149 0.000000 0.997662
v 0.863853 0.000000 0.498831
v -0.000148 0.389814 0.000000
v -0.000148 0.390301 0.997408
v -0.863929 0.390301 0.498704
v -0.863929 0.390301 -0.498704
v -0.000148 0.390301 -0.997408
v 0.863632 0.390301 -0.498704
v 0.863632 0.390301 0.498704
vt 0.932976 0.891676
vt 0.830294 0.951449
vt 0.727243 0.892410
vt 0.726812 0.773639
vt 0.829456 0.713884
vt 0.932542 0.772915
vt 0.681388 0.773686
vt 0.806718 0.674581
vt 0.955240 0.733563
vt 0.978397 0.891649
vt 0.853031 0.990804
vt 0.704555 0.931757
vt 0.829889 0.832663
vt 0.932962 0.773645
vt 0.932556 0.892405
vt 0.829452 0.951446
vt 0.726823 0.891681
vt 0.727234 0.772907
vt 0.830299 0.713882
vt 0.681407 0.891662
vt 0.806712 0.990757
vt 0.955270 0.931760
vt 0.978368 0.773679
vt 0.853042 0.674549
vt 0.704570 0.733546
vn 1.000000 0.000565 0.000000
vn 1.000000 0.000565 0.000000
vn 1.000000 0.000565 0.000000
vn 1.000000 0.000565 0.000000
vn 0.500000 0.000565 -0.866025
vn 0.500000 0.000565 -0.866025
vn 0.500000 0.000565 -0.866025
vn 0.500000 0.000565 -0.866025
vn -0.500000 0.000565 -0.866025
vn -0.500000 0.000565 -0.866025
vn -0.500000 0.000565 -0.866025
vn -0.500000 0.000565 -0.866025
vn -1.000000 0.000565 -0.000000
vn -1.000000 0.000565 -0.000000
vn -1.000000 0.000565 -0.000000
vn -1.000000 0.000565 -0.000000
vn -0.500000 0.000565 0.866025
vn -0.500000 0.000565 0.866025
vn -0.500000 0.000565 0.866025
vn -0.500000 0.000565 0.866025
vn 0.500000 0.000564 0.866025
vn 0.500000 0.000564 0.866025
vn 0.500000 0.000564 0.866025
vn 0.500000 0.000564 0.866025
vn -0.000282 1.000000 -0.000488
vn -0.000282 1.000000 -0.000488
vn -0.000282 1.000000 -0.000488
vn 0.000282 1.000000 -0.000488
vn 0.000282 1.000000 -0.000488
vn 0.000282 1.000000 -0.000488
vn 0.000564 1.000000 0.000000
vn 0.000564 1.000000 0.000000
vn 0.000564 1.000000 0.000000
vn 0.000282 1.000000 0.000488
vn 0.000282 1.000000 0.000488
vn 0.000282 1.000000 0.000488
vn -0.000282 1.000000 0.000488
vn -0.000282 1.000000 0.000488
vn -0.000282 1.000000 0.000488
vn -0.000564 1.000000 0.000000
vn -0.000564 1.000000 0.000000
vn -0.000564 1.000000 0.000000
s off
f 6/23/1 1/10/2 12/1/3 13/14/4
f 1/22/5 2/11/6 11/2/7 12/15/8
f 2/21/9 3/12/10 10/3/11 11/16/12
f 3/20/13 4/7/14 9/4/15 10/17/16
f 4/25/17 5/8/18 8/5/19 9/18/20
f 5/24/21 6/9/22 13/6/23 8/19/24
f 7/13/25 8/19/26 13/6/27
f 7/13/28 9/18/29 8/5/30
f 7/13/31 10/17/32 9/4/33
f 7/13/34 11/16/35 10/3/36
f 7/13/37 12/15/38 11/2/39
f 7/13/40 13/14/41 12/1/42
