# This file uses centimeters as units for non-parametric coordinates.

v -0.000000 0.004959 0.997923
v -0.864227 0.004959 0.498962
v -0.864227 0.004959 -0.498962
v 0.000000 0.004959 -0.997924
v 0.864227 0.004959 -0.498962
v 0.864227 0.004959 0.498962
v -0.000000 -1.829229 0.997923
v -0.864227 -1.829229 0.498962
v -0.864227 -1.829229 -0.498962
v 0.000000 -1.829229 -0.997924
v 0.864227 -1.829229 -0.498962
v 0.864227 -1.829229 0.498962
vt 0.560580 1.908708
vt 0.560681 1.259258
vt 0.209625 1.908589
vt 0.209598 1.259257
vt -0.141121 1.909022
vt -0.141406 1.259434
vt -0.492137 1.909394
vt -0.492759 1.259384
vt 1.263132 1.909120
vt 1.263082 1.259276
vt 0.911975 1.909114
vt 0.912099 1.259195
vt -0.843934 1.909705
vt -0.843932 1.259494
vn -0.500000 0.000000 0.866026
vn -0.500000 0.000000 0.866026
vn -0.500000 0.000000 0.866026
vn -0.500000 0.000000 0.866026
vn -1.000000 0.000000 -0.000000
vn -1.000000 0.000000 -0.000000
vn -1.000000 0.000000 -0.000000
vn -1.000000 0.000000 -0.000000
vn -0.500000 0.000000 -0.866025
vn -0.500000 0.000000 -0.866025
vn -0.500000 0.000000 -0.866025
vn -0.500000 0.000000 -0.866025
vn 0.500000 0.000000 -0.866025
vn 0.500000 0.000000 -0.866025
vn 0.500000 0.000000 -0.866025
vn 0.500000 0.000000 -0.866025
vn 1.000000 0.000000 0.000000
vn 1.000000 0.000000 0.000000
vn 1.000000 0.000000 0.000000
vn 1.000000 0.000000 0.000000
vn 0.500000 0.000000 0.866026
vn 0.500000 0.000000 0.866026
vn 0.500000 0.000000 0.866026
vn 0.500000 0.000000 0.866026
s off
f 8/4/1 7/2/2 1/1/3 2/3/4
f 9/6/5 8/4/6 2/3/7 3/5/8
f 10/8/9 9/6/10 3/5/11 4/7/12
f 11/14/13 10/8/14 4/7/15 5/13/16
f 12/12/17 11/10/18 5/9/19 6/11/20
f 7/2/21 12/12/22 6/11/23 1/1/24
