# This file uses centimeters as units for non-parametric coordinates.

v -0.000000 0.004965 0.997923
v -0.864227 0.004965 0.498962
v -0.864227 0.004965 -0.498962
v 0.000000 0.004965 -0.997924
v 0.864227 0.004965 -0.498962
v 0.864227 0.004965 0.498962
v -0.000000 -2.647114 0.997923
v -0.864227 -2.647114 0.498962
v -0.864227 -2.647114 -0.498962
v 0.000000 -2.647114 -0.997924
v 0.864227 -2.647114 -0.498962
v 0.864227 -2.647114 0.498962
vt 1.068764 1.247711
vt 1.069037 0.308411
vt 0.717809 1.247592
vt 0.717761 0.308420
vt 0.367063 1.248025
vt 0.366512 0.308522
vt 0.016047 1.248397
vt 0.015206 0.308654
vt 1.771316 1.248123
vt 1.771634 0.308595
vt 1.420159 1.248117
vt 1.420348 0.308500
vt -0.335749 1.248708
vt -0.336217 0.308806
vn -0.500000 0.000000 0.866025
vn -0.500000 0.000000 0.866025
vn -0.500000 0.000000 0.866025
vn -0.500000 0.000000 0.866025
vn -1.000000 0.000000 -0.000000
vn -1.000000 0.000000 -0.000000
vn -1.000000 0.000000 -0.000000
vn -1.000000 0.000000 -0.000000
vn -0.500000 0.000000 -0.866025
vn -0.500000 0.000000 -0.866025
vn -0.500000 0.000000 -0.866025
vn -0.500000 0.000000 -0.866025
vn 0.500000 0.000000 -0.866025
vn 0.500000 0.000000 -0.866025
vn 0.500000 0.000000 -0.866025
vn 0.500000 0.000000 -0.866025
vn 1.000000 0.000000 0.000000
vn 1.000000 0.000000 0.000000
vn 1.000000 0.000000 0.000000
vn 1.000000 0.000000 0.000000
vn 0.500000 0.000000 0.866026
vn 0.500000 0.000000 0.866026
vn 0.500000 0.000000 0.866026
vn 0.500000 0.000000 0.866026
s off
f 8/4/1 7/2/2 1/1/3 2/3/4
f 9/6/5 8/4/6 2/3/7 3/5/8
f 10/8/9 9/6/10 3/5/11 4/7/12
f 11/14/13 10/8/14 4/7/15 5/13/16
f 12/12/17 11/10/18 5/9/19 6/11/20
f 7/2/21 12/12/22 6/11/23 1/1/24
